<svg width="22" height="21" viewBox="0 0 22 21" fill="none" xmlns="http://www.w3.org/2000/svg">
<mask id="mask0" mask-type="alpha" maskUnits="userSpaceOnUse" x="3" y="1" width="17" height="20">
<path fill-rule="evenodd" clip-rule="evenodd" d="M6.3572 1H9.86288H10.1882H13.6743C16.0235 1 18.7552 2.72395 17.9403 6.51515C17.2219 9.86385 14.537 11.8334 11.3253 11.8334L9.61528 11.8332L9.61512 11.8334H9.23377C8.77342 11.8334 8.46845 12.2137 8.39649 12.6662L7.47087 18.5L3.84502 18.5C3.3855 18.5 2.93573 18.1194 3.0076 17.6667L5.51982 1.83335C5.59162 1.38058 5.89662 1 6.3572 1ZM8.39639 12.6667L8.39649 12.6662L8.39639 12.6667ZM19.5307 7.07186C19.9687 7.84834 20.1434 8.87101 19.867 10.1566C19.217 13.1863 16.7878 14.9683 13.8819 14.9683L13.1898 14.966L13.1897 14.9661L12.7734 14.9683C12.3569 14.9704 12.1523 15.3102 12.0872 15.7196L12.0427 16L11.3813 20.1686C11.3119 20.6019 11.0256 20.9708 10.5958 20.9983L7.95151 21C7.53579 21.0003 7.12885 20.6557 7.19384 20.2461L7.20645 20.1667H8.90198L9.79329 14.5489L9.81754 14.5524L9.96861 13.4999L11.3252 13.5C15.3634 13.5003 18.6015 10.9677 19.5307 7.07186ZM12.0871 15.7201L12.0872 15.7196L12.0871 15.7201Z" fill="#242748"/>
</mask>
<g mask="url(#mask0)">
<rect width="22" height="21" fill="#242748"/>
</g>
</svg>
